<?xml version="1.0" encoding="utf-8"?>
<!-- Generator: Adobe Illustrator 26.0.3, SVG Export Plug-In . SVG Version: 6.00 Build 0)  -->
<svg version="1.0" id="katman_1" xmlns="http://www.w3.org/2000/svg" xmlns:xlink="http://www.w3.org/1999/xlink" x="0px" y="0px"
	 viewBox="0 0 800 600" style="enable-background:new 0 0 800 600;" xml:space="preserve">
<style type="text/css">
	.st0{fill:#0E150E;}
</style>
<g>
	<g>
		<path class="st0" d="M576,68.9H223c-30.4,0-55.1,24.7-55.1,55.1V477c0,30.4,24.7,55.1,55.1,55.1H576c30.4,0,55.1-24.7,55.1-55.1
			V124C631.1,93.6,606.4,68.9,576,68.9 M531.9,271c-2.5,0.2-5.1,0.4-7.6,0.4c-27.9,0-53.9-14-69.1-37.4v127.2c0,51.9-42.1,94-94,94
			c-51.9,0-94-42.1-94-94c0-51.9,42.1-94,94-94c2,0,3.9,0.2,5.8,0.3v46.3c-1.9-0.2-3.8-0.6-5.8-0.6c-26.5,0-48,21.5-48,48
			c0,26.5,21.5,48,48,48c26.5,0,49.9-20.9,49.9-47.4l0.5-216.1h44.3c4.2,39.8,36.2,70.8,76.1,73.7L531.9,271"/>
	</g>
</g>
</svg>
