<?xml version="1.0" encoding="UTF-8" standalone="no"?>
<!-- Created with Inkscape (http://www.inkscape.org/) -->

<svg
   width="254.34431mm"
   height="89.03521mm"
   viewBox="0 0 254.34432 89.03521"
   version="1.1"
   id="svg1"
   xml:space="preserve"
   inkscape:version="1.3 (0e150ed6c4, 2023-07-21)"
   sodipodi:docname="Skittles 2024ver2.svg"
   xmlns:inkscape="http://www.inkscape.org/namespaces/inkscape"
   xmlns:sodipodi="http://sodipodi.sourceforge.net/DTD/sodipodi-0.dtd"
   xmlns:xlink="http://www.w3.org/1999/xlink"
   xmlns="http://www.w3.org/2000/svg"
   xmlns:svg="http://www.w3.org/2000/svg"><sodipodi:namedview
     id="namedview1"
     pagecolor="#ffffff"
     bordercolor="#000000"
     borderopacity="0.25"
     inkscape:showpageshadow="2"
     inkscape:pageopacity="0.0"
     inkscape:pagecheckerboard="0"
     inkscape:deskcolor="#d1d1d1"
     inkscape:document-units="mm"
     inkscape:zoom="1.0794827"
     inkscape:cx="451.6052"
     inkscape:cy="181.10526"
     inkscape:window-width="1920"
     inkscape:window-height="1009"
     inkscape:window-x="-8"
     inkscape:window-y="-8"
     inkscape:window-maximized="1"
     inkscape:current-layer="layer1"
     showguides="false"
     showgrid="false" /><defs
     id="defs1"><linearGradient
       id="linearGradient485"
       inkscape:collect="always"><stop
         style="stop-color:#ffffff;stop-opacity:0;"
         offset="0.6088993"
         id="stop486" /><stop
         style="stop-color:#fffaf5;stop-opacity:0.80297399;"
         offset="0.73536295"
         id="stop485" /></linearGradient><linearGradient
       id="linearGradient478"
       inkscape:collect="always"><stop
         style="stop-color:#ffe9d1;stop-opacity:0.17;"
         offset="0"
         id="stop480" /><stop
         style="stop-color:#ffe9d1;stop-opacity:0.23420075;"
         offset="0.30562061"
         id="stop481" /><stop
         style="stop-color:#ffe9d1;stop-opacity:0.16356878;"
         offset="0.57903981"
         id="stop482" /><stop
         style="stop-color:#ffe9d1;stop-opacity:0.42379186;"
         offset="0.72980088"
         id="stop483" /><stop
         style="stop-color:#fffaf5;stop-opacity:1;"
         offset="0.89461356"
         id="stop479" /></linearGradient><linearGradient
       id="linearGradient76"
       inkscape:collect="always"><stop
         style="stop-color:#ca0c25;stop-opacity:1;"
         offset="0.62763464"
         id="stop77" /><stop
         style="stop-color:#6b030e;stop-opacity:1;"
         offset="1"
         id="stop76" /></linearGradient><radialGradient
       inkscape:collect="always"
       xlink:href="#linearGradient76"
       id="radialGradient77"
       cx="105.00378"
       cy="147.36136"
       fx="105.00378"
       fy="147.36136"
       r="4.4498734"
       gradientTransform="matrix(1.4812989,-1.0374416,1.4876248,2.1240879,-263.75109,-138.03589)"
       gradientUnits="userSpaceOnUse" /><radialGradient
       inkscape:collect="always"
       xlink:href="#linearGradient478"
       id="radialGradient480"
       cx="85.306915"
       cy="160.69443"
       fx="85.306915"
       fy="160.69443"
       r="3.8985739"
       gradientTransform="matrix(2.3008522,1.7473026,-1.3041002,1.7172418,123.91571,-356.56259)"
       gradientUnits="userSpaceOnUse" /><radialGradient
       inkscape:collect="always"
       xlink:href="#linearGradient485"
       id="radialGradient486"
       cx="103.87035"
       cy="148.64185"
       fx="103.87035"
       fy="148.64185"
       r="4.4498734"
       gradientTransform="matrix(2.2616149,1.4798739,-2.0226756,3.0911509,176.3669,-543.73316)"
       gradientUnits="userSpaceOnUse" /><filter
       inkscape:collect="always"
       style="color-interpolation-filters:sRGB"
       id="filter489"
       x="-0.005948053"
       y="-0.017375404"
       width="1.0118961"
       height="1.0347508"><feGaussianBlur
         inkscape:collect="always"
         stdDeviation="0.35789233"
         id="feGaussianBlur489" /></filter></defs><g
     inkscape:label="Layer 1"
     inkscape:groupmode="layer"
     id="layer1"
     transform="translate(-36.484951,-34.561921)"><g
       id="g3"><path
         id="path488"
         style="color:#000000;mix-blend-mode:normal;fill:#000000;fill-opacity:0.404558;stroke-linecap:square;-inkscape-stroke:none;paint-order:stroke fill markers;filter:url(#filter489)"
         d="m 112.43996,55.197859 -8.94886,0.498775 c -0.66432,0.03702 -1.29502,0.502963 -1.7178,0.925703 l -1.28346,1.281377 c -0.0992,0.0992 -0.11606,0.217222 -0.19713,0.320344 -0.1589,-0.144152 -0.27231,-0.321645 -0.468494,-0.439694 -0.608905,-0.366392 -1.352542,-0.479802 -1.873376,-0.437022 l -6.630444,0.542418 h -0.0033 c 1.22e-4,-4.8e-5 -0.001,3.45e-4 -8.91e-4,2.97e-4 3.61e-4,-1.43e-4 -0.003,0.001 -0.0027,8.91e-4 -0.392312,0.03349 -0.75072,0.149453 -0.937578,0.223558 l 0.932828,-0.222074 c 0.176614,-0.07186 -1.498284,0.443726 -1.902174,0.829808 l -1.259704,1.208936 c -0.303718,0.290699 -0.58084,0.69894 -0.744303,1.062272 -0.18161,0.40368 -0.336542,1.02932 -0.263342,1.734431 -0.05716,-0.446311 -0.116708,-0.921992 -0.175759,-1.382913 -0.06017,-0.46972 -0.276142,-1.322031 -1.011801,-1.968381 -0.794447,-0.697991 -1.671682,-0.785811 -2.33593,-0.720849 -2.332804,0.22823 -4.620409,0.523575 -6.873003,0.781415 -0.366947,0.042 -0.775067,0.321632 -1.175981,0.543012 -1.145311,-2.565171 -3.654184,-4.402292 -6.640538,-4.398722 -1.944948,0.003 -3.768561,0.788537 -5.128775,2.091887 l -1.146886,1.09968 c -1.458825,1.39786 -2.270926,3.329755 -2.272989,5.335707 -0.0015,1.474153 0.460043,2.825806 1.214873,3.970606 -1.575717,0.25317 -3.155463,0.504386 -4.71105,0.773696 -0.652208,0.112922 -1.339184,0.358242 -1.928003,0.935203 l -0.710458,0.697691 -0.738365,-5.701475 c -0.22671,-1.744758 -1.820077,-2.89607 -3.546945,-2.558598 l -6.665774,1.302754 c -0.496472,0.097 -0.855833,0.298239 -1.107399,0.468789 -0.125785,0.0853 -0.225644,0.165687 -0.30075,0.230387 -0.07511,0.0647 -0.237391,0.218607 -0.109552,0.09976 l -1.210718,1.125213 c -0.160959,0.149632 -0.189829,0.31754 -0.308468,0.47443 -1.896826,-1.180291 -4.080834,-2.039337 -6.74059,-2.039337 -5.730098,0 -11.073255,2.629804 -14.507826,6.445778 l -0.01336,0.01544 -0.06086,0.07214 -0.04661,0.06057 -0.0021,0.0021 c -1.892192,2.440971 -3.15254,5.18812 -3.058857,8.742223 0.09383,3.560094 1.078921,6.376361 2.892896,8.366953 0.253933,0.27866 0.557685,0.426687 0.832182,0.656127 -0.08088,0.0196 -0.578341,0.140726 -0.578341,0.140726 -0.575229,0.13942 -1.369056,0.460303 -1.918206,1.295034 -0.348527,0.529752 -1.048616,1.591924 -1.048616,1.591924 -0.84446,1.283591 -0.621905,2.5888 -0.445335,3.19513 0.819059,2.812533 2.232028,5.398864 4.504118,7.267871 2.278716,1.87437 5.320769,2.89022 8.907887,2.89022 3.300849,0 6.21447,-0.57906 7.997919,-1.17954 1.478121,-0.49767 4.07291,-1.47767 6.334148,-3.724489 0.196035,-0.19478 0.310536,-0.501683 0.494322,-0.714614 0.421077,0.710693 0.994732,1.228163 1.451198,1.394193 0.481758,0.17524 1.153494,0.25075 1.716618,0.14459 l 5.868921,-1.107402 c 0.892665,-0.168363 1.526712,-0.718317 1.763823,-0.951236 l 1.805091,-1.771542 0.282937,0.120834 c 0.365524,0.604342 0.733636,0.897578 1.345802,1.142729 0.421182,0.16877 0.849689,0.204446 1.027239,0.211386 0.424487,0.0165 0.765519,-0.0331 1.101165,-0.0766 0.730491,-0.0946 1.797554,-0.266175 3.68767,-0.529057 0.393851,-0.0548 1.053131,-0.145631 1.706821,-0.253841 0.603829,-0.1 1.241979,-0.177103 1.963333,-0.455133 0.03453,-0.0133 0.06816,-0.06668 0.107475,-0.08788 0.26878,0.0304 0.544383,0.158199 0.777258,0.127069 l 6.609364,-0.883248 c 0.88247,-0.11795 1.680604,-0.645581 2.142655,-1.243672 l 1.177466,-1.525718 c 0.240088,-0.270341 0.406775,-0.603536 0.533511,-1.004378 1.485958,1.358793 3.208836,2.198898 4.900466,2.474578 1.943381,0.316702 3.788585,0.140815 5.380537,-0.04067 1.156789,-0.131939 1.891067,-0.686449 2.42767,-1.216359 l 1.482668,-1.461589 c 0.258342,-0.22468 0.36922,-0.602785 0.521339,-0.906405 3.104237,2.689383 7.135511,2.724447 10.111481,2.384917 0.75425,-0.0861 1.28911,-0.369386 1.74987,-0.693535 0.49359,0.17977 1.01441,0.279445 1.3265,0.267795 l 6.66577,-0.250278 c 0.63592,-0.024 1.20299,-0.241705 1.58391,-0.497885 0.23493,-0.15801 0.41772,-0.34851 0.6113,-0.539152 0.52606,-0.518058 1.49039,-1.638536 1.49039,-1.638536 1.99288,1.48458 4.77339,2.687745 8.30282,2.687745 3.67047,0 6.31438,-0.915532 8.50798,-2.432123 0.90651,-0.626721 1.56683,-1.276438 2.10317,-1.882579 2.23155,2.800943 5.8843,4.845838 10.88458,4.845838 2.35666,0 5.1182,-0.44916 7.60008,-1.818451 2.50491,-1.381922 4.68513,-3.8974 5.14244,-7.394342 0.0922,-0.556752 0.1425,-1.1273 0.1425,-1.717211 0,-2.565452 -0.67313,-4.977862 -2.5586,-7.214724 -0.13356,-0.15844 -0.22968,-0.16688 -0.36517,-0.29303 0.26181,-0.25956 0.40852,-0.411941 0.5917,-0.586061 0.30812,-0.2929 0.71072,-0.98429 0.47473,-0.59378 0.0716,-0.11846 0.14642,-0.26069 0.21049,-0.40763 0.028,-0.0643 0.37053,-0.939161 0.22297,-1.758182 -0.42405,-2.354652 -1.50243,-4.812491 -3.5606,-6.677353 -2.15439,-1.952132 -5.48821,-3.298744 -9.39687,-3.298744 -1.92835,0 -6.38994,0.332219 -9.52334,4.458693 -0.13574,0.17876 -0.18612,0.403538 -0.30847,0.590218 -2.52915,-3.082143 -6.0943,-4.879387 -10.16788,-4.879387 -1.98265,0 -4.26203,0.44784 -5.93573,1.168559 -1.79379,0.772441 -3.19403,1.922052 -4.37497,3.230163 l -1.078,-8.259776 c -0.13512,-1.035374 -0.11799,-2.787447 -1.59163,-2.715356 z m -47.2824,14.147104 c 0.05044,0.0254 0.09634,0.05814 0.147555,0.08224 -0.0041,0.005 -0.0093,0.0027 -0.01336,0.0077 -0.0042,0.006 -0.0097,0.0099 -0.01395,0.01544 -0.04604,-0.0304 -0.08235,-0.06828 -0.120241,-0.105396 z"
         transform="matrix(1.7405932,0,0,1.7405932,11.184695,-60.016327)" /><path
         id="path46"
         style="color:#000000;fill:#c70925;fill-opacity:1;stroke-width:1.74059;stroke-linecap:square;-inkscape-stroke:none;paint-order:stroke fill markers"
         d="m 206.14802,36.957621 c -0.0139,4.56e-4 -0.0346,0.0031 -0.0477,0.0037 -0.003,1e-4 -0.007,-9.9e-5 -0.0106,0 -0.002,6.6e-5 -0.005,-6.6e-5 -0.007,0 -0.007,4.79e-4 -0.0212,0.0029 -0.034,0.0037 -0.0218,7.76e-4 -0.0566,0.0029 -0.0783,0.0037 -0.014,4.85e-4 -0.0334,0.0031 -0.0468,0.0037 -2.06292,0.07603 -4.89935,0.243056 -7.32985,0.401166 -2.50489,0.162954 -4.77465,0.324144 -4.63411,0.315715 -0.87628,0.05254 -1.60331,0.556722 -1.94465,0.89768 l -2.2334,2.229801 c -0.55123,0.550857 -0.84723,1.532697 -0.75106,2.359328 0.17967,1.544299 0.74828,5.680917 1.04338,8.01973 l -2.21991,0.18709 c -0.41525,-3.13709 -0.78661,-5.79455 -1.11085,-8.332747 -0.10879,-0.851857 -0.69578,-1.677122 -1.31592,-2.049906 -0.62014,-0.372786 -1.15141,-0.442877 -1.70362,-0.39757 l -11.55468,0.945349 c -0.38996,0.03201 -0.65313,0.121249 -0.89408,0.216774 -0.24091,0.09552 -0.33545,0.03192 -0.8437,0.5172 l -2.19562,2.101176 c -0.33071,0.315822 -0.52447,0.600938 -0.72048,1.036197 -0.19602,0.435262 -0.3623,1.021392 -0.26894,1.730592 l 0.81942,6.241467 c -0.30197,0.148038 -0.69452,0.254499 -0.83651,0.391273 l -0.0576,0.05756 c -0.24177,-0.119405 -0.48012,-0.344814 -0.6836,-0.384077 -0.87242,-0.168333 -1.32941,-0.02492 -1.85562,0.02428 -0.45216,0.04228 -1.18782,0.125115 -1.78186,0.187092 -0.39273,-3.06291 -0.7159,-5.584531 -1.07399,-8.376824 -0.0657,-0.512551 -0.24988,-1.22994 -0.89408,-1.795356 -0.64418,-0.565416 -1.5052,-0.67612 -2.09128,-0.61884 -4.01237,0.392171 -7.98344,0.902143 -11.93246,1.353711 -0.51936,0.05936 -1.1437,0.271606 -1.64874,0.751065 l -2.15154,2.042709 c -0.42057,-5.26775 -4.74136,-9.491399 -10.11372,-9.484977 -2.68688,0.0033 -5.22565,1.088654 -7.13284,2.914303 l -1.99864,1.913187 c -2.02211,1.935656 -3.15249,4.619222 -3.15535,7.408088 -0.004,3.901657 2.24677,7.244212 5.4751,8.976774 -0.41649,-0.147619 -0.79436,-0.184794 -1.12974,-0.175397 -0.2124,0.0059 -0.41493,0.02762 -0.61884,0.05756 -4.01063,0.587496 -8.0052,1.277275 -11.98372,1.965356 -0.74257,0.128404 -1.47392,0.430325 -1.97525,0.921063 l -2.9404,2.876526 c -0.79263,0.775893 -0.93917,1.387213 -0.88058,2.342237 0.0989,1.613154 -0.21049,2.82185 -0.62245,3.855156 l -2.50145,-19.313941 c -0.18436,-1.424218 -1.6798,-2.500778 -3.08611,-2.226206 l -11.61674,2.267581 c -0.781529,0.152563 -1.332532,0.709804 -1.366304,0.741169 l -2.108374,1.958161 c -0.808894,0.751234 -1.052597,1.955054 -0.992122,2.709222 -3.265329,-2.897931 -7.599528,-4.732145 -13.068493,-4.732145 -9.170061,0 -17.862799,4.280846 -23.335118,10.354773 l -0.04677,0.05485 -0.04498,0.05756 c -3.086825,3.978084 -4.929748,7.970474 -4.782516,13.550613 0.152093,5.764549 1.697767,9.957931 4.357965,12.874214 1.834967,2.01161 4.138226,3.102042 6.514007,3.892932 -3.25746,0.788351 -7.387401,1.788161 -7.387401,1.788161 -0.59163,0.143181 -1.327524,0.473241 -1.774667,1.152231 -0.608336,0.923751 -1.825937,2.770383 -1.825937,2.770383 -0.876976,1.331656 -0.633492,2.76297 -0.448838,3.39642 1.322819,4.53784 3.54038,8.52508 6.996127,11.36488 3.455749,2.8398 8.093411,4.43623 13.860933,4.43623 5.432988,0 10.351943,-0.99189 13.101774,-1.91681 2.459909,-0.8274 6.530313,-2.38794 10.029162,-5.86097 1.506665,-1.49554 2.835274,-3.43541 3.929812,-5.70448 l 0.560373,4.34087 c 0.153834,1.19051 1.080052,1.74652 1.63525,1.94826 0.555197,0.20174 1.000606,0.25454 1.611861,0.13942 l 10.226156,-1.92757 c 0.8841,-0.16651 1.38509,-0.61972 1.72699,-0.95523 l 3.14457,-3.08342 -0.22847,0.18979 c 0.76747,-0.55348 1.11985,-1.81468 1.03349,-2.48165 l -0.52348,-4.048552 4.277,7.064492 c 0.23518,0.38842 0.69764,0.76132 1.08117,0.91477 0.38354,0.15345 0.67515,0.17396 0.92108,0.18349 0.49181,0.0191 0.8877,-0.0354 1.48232,-0.11242 1.18925,-0.15391 3.08774,-0.45794 6.40157,-0.91837 0.6887,-0.0957 1.81429,-0.25117 2.90622,-0.43174 1.09194,-0.18059 2.00866,-0.30618 2.90712,-0.65213 0.33113,-0.1275 0.21241,-0.23337 0.42095,-0.37778 0.004,0.002 0.007,0.0117 0.0108,0.0136 0.60848,0.29756 1.10824,0.35821 1.70272,0.27883 l 11.51778,-1.53638 c 0.89431,-0.11944 1.52159,-0.54207 2.00945,-1.17293 l 2.05349,-2.655249 -0.0513,0.0549 -0.20688,0.18979 c 0.3564,-0.279021 0.71822,-0.787171 0.85272,-1.270961 0.13447,-0.483781 0.0978,-0.8522 0.0648,-1.108151 l -3.0663,-23.756981 0.19338,-0.02698 1.26197,10.157781 c 0.54814,4.406403 1.16641,8.950876 4.58913,12.857118 2.35496,2.687642 5.34977,3.998333 8.31566,4.481193 2.96587,0.48285 5.93337,0.22244 8.65836,-0.0881 1.07697,-0.12275 2.13992,-0.835024 2.69304,-1.380695 l 2.58328,-2.546422 -0.0988,0.072 -0.0747,0.054 c 0.41657,-0.284739 0.84581,-0.8555 0.99662,-1.383401 0.15081,-0.52789 0.12235,-0.949891 0.0746,-1.333021 l -0.60175,-4.837382 c 0.62941,1.59946 1.4279,3.169852 2.71642,4.640393 4.69653,5.359994 11.54391,5.254743 17.05227,4.626913 1.0735,-0.122351 2.13989,-0.831232 2.69574,-1.383402 l 0.64942,-0.64582 c 0.27696,0.33506 0.43187,0.842531 0.72048,0.978631 0.59266,0.27951 1.05421,0.312281 1.49223,0.29593 l 11.61314,-0.43535 c 1.2749,-0.04799 1.78328,-0.756911 2.01933,-0.989421 l 0.007,-0.004 0.007,-0.006 2.55472,-2.805902 c 0.90879,-0.998121 0.89843,-1.623451 0.85276,-1.950512 l -0.14309,-1.0227 c 0.39583,0.43413 0.62686,0.913871 1.07398,1.328521 2.91923,2.707232 8.10825,5.467014 14.6156,5.467014 5.99383,0 9.88073,-1.380141 13.33653,-3.767003 3.00928,-2.078452 4.40118,-4.204722 5.19447,-5.540774 2.89384,5.673274 9.15989,10.232448 18.9223,10.232448 3.76272,0 8.17125,-0.741502 11.9765,-2.838753 3.79546,-2.091852 6.97613,-5.730163 7.64557,-10.963717 0.14219,-0.8405 0.21408,-1.70191 0.21408,-2.611182 0,-4.07537 -0.91464,-7.405612 -3.84167,-10.874664 -0.69121,-0.81921 -1.68971,-1.374937 -2.577,-2.013028 l 0.0548,-0.0037 0.54418,-0.55048 c 0,0 1.7176,-1.726349 2.56981,-2.535625 0.42124,-0.400033 0.31978,-0.378269 0.39127,-0.496511 0.0716,-0.118238 0.13855,-0.244526 0.20688,-0.401168 0.13648,-0.31328 0.36084,-0.720491 0.21048,-1.554292 -0.65866,-3.653175 -2.31054,-7.36832 -5.38426,-10.150594 -3.18387,-2.881984 -8.42243,-5.06585 -14.61829,-5.06585 -3.05164,0 -10.46849,0.539508 -15.17238,6.728085 -0.98769,1.299428 -1.73547,2.744123 -2.25767,4.313886 -0.01,-0.01445 -0.01,-0.03323 -0.0174,-0.04767 -3.89306,-6.943416 -10.31964,-10.69837 -18.05878,-10.698371 -3.0586,-2e-6 -6.03516,0.694512 -8.64847,1.81874 -4.96631,2.13644 -8.27111,5.84736 -10.37906,10.209058 l -2.74701,-21.022563 c -0.17822,-1.364781 -1.31906,-2.345311 -2.72271,-2.326047 -0.0259,3.52e-4 -0.0425,-0.02083 -0.0684,-0.0198 z m -63.9123,14.55083 0.61164,4.765426 c -0.24188,0.111277 -0.48192,0.101527 -0.73757,0.350796 l -0.26535,0.258149 c -0.54439,-0.363753 -1.13088,-0.516418 -1.59747,-0.510002 -0.15744,0.0021 -0.2951,0.01688 -0.41467,0.03418 l -1.18639,0.170002 1.41037,-1.352811 c 0.80133,-0.768634 1.37716,-1.736334 1.99234,-3.019542 0.0976,-0.203709 0.0945,-0.482712 0.1871,-0.696195 z m -15.86136,7.376608 c 0.0879,0.04425 0.168,0.101177 0.25725,0.143006 -0.007,0.0089 -0.0165,0.0045 -0.0235,0.01358 -0.007,0.0096 -0.0169,0.01723 -0.0243,0.02698 -0.0802,-0.05291 -0.14355,-0.118796 -0.20958,-0.183492 z m 65.81467,8.611585 c 0.63417,4.816538 1.00045,7.754789 1.60828,12.353409 -0.0186,-4.24e-4 -0.0245,5.84e-4 -0.044,0 -1.44646,-0.04339 -1.61591,-0.283545 -1.96805,-1.066778 -0.38745,-0.861676 -0.72242,-2.684888 -1.06409,-5.331196 l -0.64313,-4.980402 c 0.75295,-0.08258 1.26386,-0.397675 1.66224,-0.787941 -0.36344,0.355877 -0.31564,0.246688 -0.32291,0.250953 -0.007,0.0042 0.0228,-0.01131 0.0648,-0.03417 0.0839,-0.04555 0.22698,-0.121825 0.39488,-0.214076 0.0841,-0.04622 0.21554,-0.134827 0.3121,-0.189789 z m -25.80957,2.195623 c 0.0633,0.05361 0.0197,0.120606 0.0916,0.170003 0.91193,0.62456 1.66128,0.509652 2.33594,0.452437 l 1.45445,-0.122327 1.35373,10.721759 v 0.004 c 0.0717,0.550859 0.22529,1.09917 0.30221,1.652331 -0.53282,-0.447951 -1.21985,-0.775352 -1.78816,-0.775352 -0.7226,0 -0.89078,0.08911 -1.59117,0.08911 -0.96752,0 -1.3947,-0.336289 -1.60826,-0.61254 -0.23056,-0.29824 -0.90167,-2.825163 -1.18641,-5.041567 -0.0489,-0.380465 -0.41721,-3.264716 -0.73757,-5.762045 0.42608,-0.13876 0.85425,-0.271668 1.16662,-0.574767 z m -98.904631,1.896996 c 1.338599,0 2.017933,0.283392 2.332343,0.527092 0.314412,0.243701 0.470506,0.504931 0.547781,1.180116 0.01706,0.148924 0.09911,0.376477 0.132233,0.550477 -1.073745,-0.04844 -2.443917,-0.201047 -3.331662,-0.255452 -1.649689,-0.101093 -2.628806,-0.400967 -3.307376,-0.680004 0.216106,-0.236166 -0.08283,-0.125445 0.754663,-0.567569 0.338862,-0.178896 2.381632,-0.75466 2.872027,-0.75466 z m 18.963662,2.097578 0.638628,4.93273 c -0.105844,-0.08172 -0.177098,-0.210395 -0.285132,-0.288732 -2.255071,-1.635151 -4.703199,-2.538873 -7.149939,-3.205736 2.24315,-0.519617 4.647237,-0.984481 6.755067,-1.411277 0.01706,-0.0035 0.02446,-0.0233 0.04137,-0.02698 z m 38.765639,1.227786 c 0.55261,4.577162 1.061,9.138054 1.67572,13.740397 -1.71405,-2.601122 -3.41956,-5.219073 -5.12971,-7.811948 1.31016,-1.687125 2.4779,-3.667358 3.45399,-5.928449 z m 127.63031,0.420954 c 0.70944,0.63041 1.47108,1.108694 2.24419,1.56419 l -2.2334,-0.03777 h -0.0139 c -0.45266,-7.83e-4 -0.8377,0.09545 -1.15582,0.224868 -0.10827,0.04405 -0.23129,0.180042 -0.32292,0.220373 -0.0989,-0.05754 -0.17162,-0.170229 -0.27524,-0.214076 z M 62.209295,94.169718 c 1.399911,0.06441 3.146293,0.25177 4.160978,0.32651 2.108234,0.155301 3.60034,0.230529 4.562144,0.36339 0.961803,0.13286 1.264205,0.274671 1.485935,0.45603 0.193776,0.1585 0.348029,0.460481 0.401168,0.808631 0.01913,0.125289 -0.007,0.22699 -0.02428,0.325611 -0.08393,0.05881 -0.126977,0.0943 -0.295926,0.194289 -1.502389,0.889361 -3.864867,1.424771 -5.609137,1.424771 -2.181952,0 -2.966513,-0.446661 -3.534943,-1.033502 -0.515868,-0.532579 -0.973553,-1.76273 -1.145932,-2.86573 z"
         sodipodi:nodetypes="cssccccscccsccssccsccsccccsscsssscccssscccsccscccccccscccssccscsssssccsccccccccssssssccccccccsccccsssccccsccssccscccccsccssscsscsscccssccsssccssccscccccccccssscccccccsccscccccssscccccccsssscccssscscsssccscssccccccccsscccssssscsssss" /><path
         id="path18"
         style="fill:#181f1a;fill-opacity:1;stroke-width:5.22178;stroke-linecap:square;paint-order:stroke fill markers"
         d="m 193.39883,39.994659 -2.22981,2.254988 c -0.12776,0.129117 -0.23521,0.352351 -0.18977,0.742967 1.15865,9.959517 5.16794,39.612235 6.76675,52.073394 0.0623,0.48549 0.61454,0.60456 0.95525,0.59185 l 11.61403,-0.43355 c 0.27749,-0.01036 0.51819,-0.23145 0.71598,-0.42635 l 2.63368,-2.594092 -13.36802,-0.06481 z m -62.47133,1.517417 c -1.18236,3.14e-4 -2.35104,0.252999 -3.42791,0.74117 l -0.34467,-0.335292 -1.98316,1.910273 c -1.62641,1.566611 -2.54948,3.733222 -2.55183,5.991413 -0.005,4.588085 3.71949,8.312471 8.30757,8.307566 2.14316,-0.0023 4.19555,-0.847904 5.74226,-2.331445 l 1.9725,-2.082689 -0.2545,-0.265842 c 0.55339,-1.129469 0.8431,-2.369846 0.8473,-3.62759 -1.1e-4,-4.588084 -3.71947,-8.307449 -8.30756,-8.307564 z m 40.86141,2.2316 -2.19922,2.100278 c -0.16636,0.158916 -0.46111,0.607785 -0.39846,1.092865 l 1.22327,9.296089 h 3.1113 z m -25.22852,2.692134 -2.19832,2.100279 c -0.16635,0.158915 -0.46111,0.60778 -0.39846,1.092862 l 1.42117,11.004196 -1.81694,-2.632769 -3.0726,2.978167 1.57587,10.501388 4.68087,-0.635032 1.50842,12.12584 c 0.53394,4.387572 1.11131,8.373494 4.11781,11.804727 4.06848,4.643232 9.91518,4.346622 15.27671,3.735533 0.76009,-0.0866 1.0027,-0.301981 1.53451,-0.826622 l 2.67414,-2.638161 -16.02237,-3.534042 -2.74251,-19.700336 -6.36379,-9.222333 h 2.01392 z m 116.37247,3.890236 c -2.25415,-0.05742 -7.06055,1.577901 -10.21625,5.729664 -1.77506,2.335323 -2.80997,4.984212 -2.80997,8.40291 0,2.826105 0.86882,5.003551 2.15246,7.05729 2.66692,4.26697 6.98597,5.238985 10.92953,6.502317 9.25388,2.964512 8.587,4.450043 8.86433,5.078443 l 3.84976,-2.003131 -6.26035,-5.872684 -11.57896,-11.052766 z m -39.96013,1.601068 c -8.98815,3.791883 -12.69464,12.863481 -11.92527,22.367279 0.23253,2.872542 1.14524,10.533128 7.0429,16.002592 2.53959,2.355201 7.34618,4.942613 13.28347,4.942613 5.71941,0 9.00749,-1.199861 12.2203,-3.418903 3.86572,-2.670032 5.12881,-6.125433 5.12881,-6.125433 l -16.84,-0.654821 -13.6019,-14.033633 z m -134.233378,1.574084 -2.101177,1.999536 c -0.412247,0.392376 -0.473102,0.785715 -0.427251,1.140536 l 1.559692,12.065575 -12.450552,1.968056 -1.82324,-3.579016 -6.119138,-1.005615 -5.759347,2.011228 -2.080489,3.408116 1.522814,1.605565 c 0,0 0.320984,-1.247478 2.624671,-2.463664 0.808931,-0.427058 2.656544,-0.982228 3.788595,-0.982228 3.226388,0 4.589899,1.354154 4.829289,3.445892 0.05403,0.472042 0.278706,1.487255 0.750163,1.428369 4.534467,-0.566308 8.736838,-1.856364 12.953361,-2.710122 0.248643,-0.05034 0.494331,-0.211429 0.630533,-0.425453 l 1.231384,-1.936572 2.985361,23.102156 -14.180246,16.817503 -16.204067,1.57318 -7.43867,-4.26981 -4.944423,-7.48364 -1.709005,-2.371921 -1.82054,2.777583 c -0.44266,0.675478 -0.322096,1.372228 -0.20688,1.767468 2.489549,8.54027 8.145176,14.38982 18.973555,14.38982 5.18343,0 10.016748,-0.98895 12.478436,-1.81693 4.733084,-1.59198 14.946965,-5.82087 15.113005,-20.911033 l 1.977049,15.295593 c 0.04369,0.33811 0.602224,0.47236 0.937256,0.40927 l 10.226149,-1.92579 c 0.27288,-0.0514 0.51778,-0.23185 0.71598,-0.42635 l 3.14278,-3.0843 -11.919871,1.85742 z m 79.842018,1.723396 -2.46275,2.404301 0.94085,8.12677 -5.13151,0.30762 0.1466,3.025839 2.2226,-0.304023 c 0.188,-0.02567 0.37305,-0.122295 0.50911,-0.254551 l 2.31435,-2.248692 0.14392,1.245774 c 0.0884,0.762456 0.29217,0.967943 1.3753,0.876092 l 3.33436,-0.282437 1.58758,12.586373 c 0.57062,4.382941 1.07171,8.314124 4.07822,11.745367 4.06848,4.643232 9.99345,4.581383 15.35497,3.970281 0.7601,-0.0866 1.00459,-0.30005 1.53451,-0.82661 l 2.59589,-2.578802 -16.02238,-3.534941 -2.74251,-19.699435 z m 101.24329,4.19246 -5.11623,0.608046 -0.7124,3.067215 c 0,0 0.84367,-0.302224 1.66854,-0.302224 3.6731,0 3.40812,3.690551 3.40812,3.690551 3.95004,0.09789 8.19241,0.446685 12.26974,0.291431 l 2.71912,-2.582398 -11.99361,-1.145033 z m -141.66575,0.861699 -2.13897,2.771287 c -0.14057,0.182123 -0.21479,0.519612 -0.18437,0.87609 0.99678,11.683572 2.97365,23.788093 4.38763,35.792862 l -12.80584,1.471548 -8.29048,-13.916697 -3.67345,1.49043 0.41915,2.917903 1.5606,-0.629631 8.09529,13.370715 c 0.22415,0.3702 1.27728,0.0661 7.93518,-0.85901 1.37981,-0.19171 4.45042,-0.61574 5.37886,-0.97323 0.33402,-0.12861 0.63923,-0.56699 0.80233,-0.80953 l 0.6989,-1.03979 c 0.0406,0.35298 0.0865,0.70681 0.12593,1.05958 0.0545,0.48643 0.61733,0.63698 0.95524,0.59186 l 11.516,-1.53811 c 0.27524,-0.0368 0.54611,-0.20668 0.71599,-0.42635 l 2.11736,-2.7371 -12.19869,1.274551 z m 105.92864,0.646722 -7.05908,0.711487 -0.0449,2.183929 c 0,0 0.92136,-0.3445 1.66224,-0.3445 4.52141,0 4.86436,4.241032 4.86436,4.241032 l 3.79489,0.01445 0.59276,-1.838529 z m -122.29192,2.018425 -2.93678,2.898113 c -0.19259,0.18998 -0.31339,0.549411 -0.29683,0.819424 0.37213,6.066626 -3.92171,8.903917 -3.92171,8.903917 l 4.31658,-1.066778 3.31007,-6.522104 z m 81.37024,0.639529 -5.77374,0.346297 0.14743,2.869331 2.31885,-0.219472 c 0.18889,-0.01786 0.37357,-0.121772 0.50911,-0.254551 z M 49.376463,64.331793 c 0,0 -4.382248,4.022548 -4.382248,11.677002 0,5.451934 1.551463,9.087656 3.846162,11.603248 4.532163,4.968443 12.948138,4.620593 17.673812,4.968704 4.167544,0.307 5.949373,0.28093 7.145442,1.259271 1.314698,1.07538 1.250689,3.053251 0.83831,3.851562 l 2.21721,0.0639 1.527312,-8.334547 -19.858643,-2.067001 c 0,0 -6.320916,-3.180172 -8.199625,-5.997714 -1.504347,-2.256094 -1.909588,-7.908192 -1.909588,-7.908192 z m 176.864047,10.512181 0.12497,2.869331 21.29783,-0.196987 c 0.1897,-0.0017 0.37489,-0.120413 0.5091,-0.254551 l 2.22529,-2.224406 z m 25.96608,4.228439 -2.25586,2.559906 c 0.82665,6.881085 6.52559,14.53285 18.87641,14.53285 6.98565,0 16.52652,-2.882182 17.6837,-12.123148 l -17.96795,6.465434 z"
         sodipodi:nodetypes="cccscccccccccscsscccccccccccccccccccssscccccccssssccccccssssccccccccccccccssscscccccccccsssccccccccccccccccccccssccccccccscccccccscccccccssccscscccccccsccccccscccccccccccssssccccsccccccccccsccc" /><path
         style="opacity:0.390625;fill:#3b46a6;fill-opacity:1;stroke-width:5.22178;stroke-linecap:square;paint-order:stroke fill markers"
         d="m 88.215126,68.736514 -12.792572,2.791364 c -0.477061,0.104106 -0.921076,-0.150334 -1.017873,-0.592452 -0.334617,-1.528354 -1.778597,-4.126663 -5.942359,-4.126663 -3.108186,0 -7.658011,1.81046 -7.658011,5.064026 0,1.195215 0.71844,2.188057 1.221318,2.54474 1.124638,0.797689 2.93052,1.049156 5.010566,1.176628 5.074624,0.310988 12.749946,0.124244 18.603517,4.368682 3.217654,2.333131 5.284228,6.248883 5.284228,12.527777 0,5.319094 -1.747227,12.624574 -10.678301,16.984894 -3.942991,1.92503 -9.89282,3.58346 -15.772394,3.58346 -6.473095,0 -11.25123,-1.944 -14.486778,-6.18819 -2.244813,-2.94464 -3.193774,-5.74678 -3.670393,-9.60748 -0.0406,-0.32877 0.0037,-0.583921 0.66026,-0.742791 L 59.14125,93.576847 c 0.51429,-0.124449 0.976176,6.1e-5 1.092247,0.825331 0.195274,1.38838 0.706522,3.002991 1.713235,4.042312 0.970318,1.00175 2.435609,1.6295 4.945068,1.6295 2.094357,0 4.683265,-0.56005 6.60695,-1.698809 1.71283,-1.013952 2.741036,-2.264613 2.741036,-4.037304 0,-0.846719 -0.307774,-1.700671 -0.552929,-2.114371 -0.394912,-0.66642 -0.95105,-1.13772 -1.498012,-1.41936 -1.52761,-0.786582 -2.556287,-0.738851 -11.100066,-1.284612 -4.733012,-0.30233 -9.865645,-0.93019 -12.768281,-4.221053 -2.6896,-3.049322 -3.646784,-6.984153 -3.646784,-10.896706 0,-4.646778 1.287653,-8.510709 4.034572,-11.956533 5.196898,-6.519155 15.113097,-8.442769 20.532632,-8.442769 9.902278,0 15.623639,5.497467 17.194296,13.961757 0.04884,0.263186 0.146489,0.692297 -0.220088,0.772284 z"
         id="path1"
         sodipodi:nodetypes="sssssssssssssssssssssssssssss" /><path
         id="rect3"
         style="opacity:0.390625;fill:#3b46a6;stroke-width:5.22179;stroke-linecap:square;paint-order:stroke fill markers"
         d="m 100.76805,51.024042 -11.614041,2.26758 c -0.465933,0.09098 -0.63832,0.438114 -0.589157,0.817624 l 6.604849,50.985914 c 0.04917,0.37953 0.390079,0.62296 0.766356,0.55319 l 11.624843,-2.15511 c 0.37624,-0.0699 0.63828,-0.43811 0.58916,-0.81762 l -1.79634,-13.873516 c 0,0 0.9413,-0.290471 2.29006,-0.81133 0,0 5.29433,8.705125 7.94148,13.057696 0.22286,0.36643 0.32397,0.76299 1.0182,0.66472 0.40134,-0.0568 8.69674,-1.2311 13.04511,-1.846621 0.67223,-0.0951 0.69351,-0.761938 0.25005,-1.458949 -3.77879,-5.939434 -7.67876,-11.717848 -11.52677,-17.564983 3.62165,-4.102059 6.67283,-10.860069 6.49779,-19.229906 -0.0132,-0.633422 -0.0289,-1.052776 -0.81311,-1.0308 -0.11202,0.0031 -0.24001,0.01537 -0.38678,0.03688 -3.97786,0.582641 -7.95548,1.268399 -11.93334,1.95636 -1.11999,0.193692 -1.15762,0.581447 -1.15762,1.152229 -1e-5,3.312754 -0.97391,5.756947 -2.07241,7.543011 -2.37614,3.863401 -4.86617,4.294999 -4.86617,4.294999 l -3.10495,-23.989042 c -0.0491,-0.379516 -0.39166,-0.62561 -0.76725,-0.552279 z"
         sodipodi:nodetypes="cssssssccsssscsssssscssc" /><path
         id="path5"
         style="opacity:0.390625;fill:#3b46a6;stroke-width:5.22179;stroke-linecap:square;paint-order:stroke fill markers"
         d="m 140.11272,58.393186 -11.43389,1.628337 c -0.40079,0.05707 -0.73616,0.269758 -0.65949,0.970162 1.44676,13.218608 3.28751,25.220427 4.75296,37.850445 0.0445,0.383411 0.40116,0.644092 0.77662,0.594551 l 11.85093,-1.563331 c 0.37546,-0.0495 0.62598,-0.40246 0.57655,-0.785241 l -4.90934,-38.01662 c -0.0766,-0.593394 -0.52084,-0.74004 -0.95434,-0.678303 z"
         sodipodi:nodetypes="sssssssss" /><path
         id="path6"
         style="opacity:0.390625;fill:#3b46a6;stroke-width:5.22179;stroke-linecap:square;paint-order:stroke fill markers"
         d="m 158.98396,44.873419 c -3.97321,0.388337 -7.93591,0.89649 -11.90277,1.350113 -0.43255,0.04945 -0.80973,0.271563 -0.71149,1.028103 l 1.32133,10.174877 c -1.26342,0.150405 -2.60372,0.306569 -3.7724,0.44614 -0.4457,0.05323 -0.69101,0.410825 -0.63323,0.815824 l 1.28895,9.034343 c 0.0578,0.404999 0.30521,0.708442 0.83292,0.648522 l 3.65188,-0.414658 2.0391,15.699467 c 0.0806,0.620891 0.54489,5.262404 2.70203,8.161847 2.04848,2.753352 4.6641,4.326482 9.60641,4.326482 2.8398,0 5.20282,-0.34785 7.89111,-0.897681 0.57761,-0.118129 0.90324,-0.27247 0.80504,-1.061381 l -1.20621,-9.689166 c -0.0446,-0.358501 -0.14993,-0.696191 -0.76815,-0.696191 -0.47976,0 -0.75105,0.08911 -1.59027,0.08911 -1.48813,0 -2.55688,-0.592089 -3.16166,-1.374401 -0.91298,-1.180971 -1.28954,-3.749345 -1.57768,-5.99231 -0.0858,-0.668201 -0.86801,-6.766547 -1.29435,-10.091227 l 4.70966,-0.534287 c 0.40613,-0.04607 0.71547,-0.193992 0.63322,-0.815827 l -1.1918,-9.010058 c -0.10824,-0.818317 -0.71593,-0.697978 -1.84122,-0.592754 -0.91748,0.08579 -2.18847,0.219784 -3.66537,0.382277 -0.55661,-4.34087 -0.87842,-6.851624 -1.31773,-10.277418 -0.0668,-0.521068 -0.30355,-0.762831 -0.84732,-0.709687 z"
         sodipodi:nodetypes="ssscsssscsssssssssscsssscss" /><path
         id="path7"
         style="opacity:0.390625;fill:#3b46a6;stroke-width:5.22179;stroke-linecap:square;paint-order:stroke fill markers"
         d="m 172.32972,43.548329 c -0.51237,0.04203 -0.83115,0.263122 -0.72282,1.120087 l 1.26537,10.010176 -3.90121,0.375909 c -0.44542,0.04292 -0.61191,0.373824 -0.53879,0.917048 l 1.20309,8.935617 c 0.0548,0.407143 0.30506,0.715772 0.83292,0.673509 l 3.79785,-0.356633 1.94466,15.820746 c 0.0767,0.623801 0.54487,5.278753 2.70202,8.242897 2.04846,2.814811 4.67545,4.534392 9.61775,4.682652 2.8398,0.0852 5.2368,-0.21441 7.9251,-0.68362 0.72791,-0.12704 0.93556,-0.38036 0.83495,-1.171921 l -1.20618,-9.489526 c -0.0458,-0.359711 -0.17981,-0.790491 -0.79809,-0.809031 -0.47975,-0.0145 -0.75105,0.0665 -1.59027,0.0413 -1.97159,-0.05921 -3.09811,-0.886022 -3.70141,-2.227792 -0.58372,-1.29823 -0.87489,-3.214643 -1.21925,-5.88173 l -1.23769,-9.586084 5.12898,-0.40434 c 0.40628,-0.03203 0.72094,-0.173275 0.63323,-0.796829 l -1.2598,-8.955148 c -0.11541,-0.820589 -0.52429,-0.915251 -1.42193,-0.840644 l -4.45996,0.370684 c -0.55662,-4.357567 -0.96204,-7.065021 -1.36176,-10.194057 -0.0806,-0.630713 -0.38163,-0.784815 -0.91531,-0.74103 z"
         sodipodi:nodetypes="sscsssscsssssssssscsssscsss" /><path
         id="path8"
         style="opacity:0.390625;fill:#3b46a6;stroke-width:5.22179;stroke-linecap:square;paint-order:stroke fill markers"
         d="m 194.07813,39.691508 12.13847,-0.727821 c 0.37535,-0.0225 0.72251,0.271475 0.77302,0.658029 l 6.80372,52.07776 c 0.0505,0.386541 -0.20598,0.720341 -0.58219,0.736451 l -12.37304,0.529969 c -0.37616,0.0162 -0.72249,-0.271469 -0.773,-0.658031 l -6.77856,-51.86633 c -0.0578,-0.441844 0.29945,-0.720519 0.79158,-0.750027 z"
         sodipodi:nodetypes="sssssssss" /><path
         id="path9"
         style="opacity:0.390625;fill:#3b46a6;fill-opacity:1;stroke-width:5.22178;stroke-linecap:square;paint-order:stroke fill markers"
         d="m 230.71453,50.326046 c -9.48157,-2e-6 -17.57309,6.25477 -17.57309,19.580702 0,12.740962 6.81558,22.954638 20.40913,22.954638 7.00637,0 11.01397,-2.163901 13.70172,-5.114423 2.35064,-2.580441 3.36944,-6.547485 3.36944,-8.100684 0,-0.375182 0.1114,-0.842122 -0.96965,-0.840112 l -11.15943,0.02076 c -0.52291,9.74e-4 -0.77725,0.25937 -0.89534,0.569309 -0.66015,1.732624 -2.52111,2.486154 -4.38765,2.486154 -1.86885,0 -3.25856,-0.73243 -4.32647,-1.905992 -0.97151,-1.067606 -1.60046,-2.715853 -1.89437,-4.588647 l 22.82489,-0.211202 c 0.42376,-0.004 0.76847,2.61e-4 0.76304,-0.82008 -0.0355,-5.387595 -1.34368,-10.221623 -3.62579,-14.291782 -3.60805,-6.434991 -9.09457,-9.73863 -16.23643,-9.738632 z m 0.24734,11.198481 c 1.66556,0 2.69686,0.539393 3.66266,1.609164 1.60069,1.773017 1.85382,4.15121 1.85382,4.15121 l -10.31483,0.221209 c 0.15841,-3.072371 1.12898,-5.981583 4.79835,-5.981583 z"
         sodipodi:nodetypes="sssssssssscssssssccss" /><path
         style="opacity:0.390625;fill:#3b46a6;fill-opacity:1;stroke-width:5.22178;stroke-linecap:square;paint-order:stroke fill markers"
         d="m 264.41488,79.064372 -11.59037,-0.196457 c -0.79151,-0.0134 -0.80554,0.453799 -0.68161,1.224209 0.48833,3.035156 1.92786,5.986548 3.88079,8.167579 3.64598,4.071864 8.86655,5.343424 15.28702,5.343424 8.927,0 15.3904,-3.669672 15.3904,-11.890978 0,-3.843371 -0.77059,-6.853051 -3.37976,-9.609409 -2.4737,-2.613251 -5.92038,-4.362945 -14.0621,-6.748346 -1.19794,-0.350978 -2.82869,-0.711087 -3.58899,-1.353323 -0.40292,-0.340353 -0.88852,-0.934776 -0.90646,-1.618116 -0.014,-0.557652 0.26757,-1.074598 0.73939,-1.445361 0.44824,-0.352254 1.12884,-0.593816 1.86956,-0.593816 1.18119,0 2.1038,0.31241 2.6149,0.657732 0.75176,0.50792 1.14928,1.211428 1.41828,2.079623 0.21378,0.689986 0.32166,0.851559 1.46242,0.890469 l 10.71648,0.365524 c 0.30056,0.01025 0.69941,-0.116011 0.59857,-0.675117 -0.59857,-3.318231 -1.97669,-6.644211 -4.66317,-9.075963 -2.85085,-2.580517 -7.66126,-4.619848 -13.1933,-4.558482 -3.67042,0.0407 -7.91287,0.875501 -11.07239,3.664497 -1.95469,1.725442 -3.40131,4.358417 -3.40131,7.904121 0,3.97638 0.84891,6.659048 2.68554,8.717811 2.65331,2.974225 6.38522,4.221479 10.76815,5.745514 3.41304,1.186778 5.63402,1.643044 7.10375,2.81661 0.60505,0.483129 1.11506,1.221848 1.11506,2.080011 0,0.710862 -0.39879,1.326911 -0.84084,1.674891 -0.65414,0.514921 -1.61026,0.777191 -2.57623,0.777191 -3.64445,0 -4.80174,-2.00228 -4.97451,-3.800621 -0.0244,-0.254248 -0.31886,-0.536431 -0.71927,-0.543217 z"
         id="path10"
         sodipodi:nodetypes="sssssssssssssssssssssssssssss" /><path
         style="color:#000000;fill:#ffffff;fill-opacity:1;stroke-width:1.74059;stroke-linecap:square;-inkscape-stroke:none"
         d="m 206.21637,38.963861 -12.13843,0.727674 c -0.49213,0.0295 -0.84932,0.308322 -0.79153,0.750163 l 6.77844,51.866509 c 0.0505,0.386569 0.39739,0.67371 0.77356,0.65752 l 12.37229,-0.529791 c 0.37621,-0.01619 0.63335,-0.35013 0.58287,-0.73667 l -6.80365,-52.07789 c -0.0505,-0.386553 -0.39819,-0.680022 -0.77355,-0.657515 z m -22.33488,3.636582 -11.55198,0.948047 c -0.51237,0.04203 -0.83062,0.262883 -0.72229,1.119849 l 1.26466,10.010273 -3.90103,0.375981 c -0.44541,0.04292 -0.61192,0.373343 -0.53878,0.916566 l 1.2035,8.9363 c 0.0548,0.407144 0.30505,0.715072 0.83291,0.672807 l 3.79759,-0.356193 1.94467,15.820896 c 0.0767,0.623801 0.54488,5.278653 2.70202,8.242795 2.04846,2.814812 4.6758,4.534413 9.6181,4.682673 2.8398,0.0852 5.2361,-0.214389 7.9244,-0.683601 0.72792,-0.127039 0.9362,-0.380459 0.83561,-1.17202 l -1.20621,-9.489467 c -0.0458,-0.359709 -0.18045,-0.790979 -0.79874,-0.80953 -0.47975,-0.01441 -0.75105,0.0665 -1.59026,0.0414 -1.97158,-0.0591 -3.09806,-0.88533 -3.70135,-2.227103 -0.58371,-1.298228 -0.87444,-3.214592 -1.21879,-5.881674 l -1.23767,-9.586622 5.12882,-0.403864 c 0.40626,-0.03204 0.72094,-0.173383 0.63322,-0.796937 l -1.26017,-8.955187 c -0.1154,-0.820588 -0.52353,-0.915617 -1.42118,-0.84101 l -4.46049,0.370585 c -0.55663,-4.357566 -0.96209,-7.064734 -1.36181,-10.193767 -0.0805,-0.630712 -0.38109,-0.784953 -0.91475,-0.741168 z m -24.89753,2.272976 c -3.9732,0.388337 -7.93591,0.896492 -11.90277,1.350113 -0.43255,0.04945 -0.80973,0.271565 -0.71149,1.028103 l 1.32133,10.174877 c -1.26342,0.150405 -2.60372,0.306569 -3.7724,0.44614 -0.4457,0.05323 -0.69101,0.410827 -0.63323,0.815824 l 1.28895,9.034343 c 0.0578,0.404999 0.30521,0.708442 0.83292,0.648522 l 3.65188,-0.414658 2.0391,15.699467 c 0.0806,0.620882 0.5449,5.262413 2.70203,8.161847 2.04848,2.753352 4.66411,4.326482 9.60641,4.326482 2.8398,0 5.20282,-0.34785 7.89111,-0.897681 0.57761,-0.118129 0.90324,-0.27247 0.80504,-1.061381 l -1.20621,-9.689166 c -0.0446,-0.358501 -0.14993,-0.696191 -0.76815,-0.696191 -0.47976,0 -0.75105,0.08911 -1.59027,0.08911 -1.48812,0 -2.55688,-0.592089 -3.16166,-1.374401 -0.91298,-1.180971 -1.28954,-3.749347 -1.57768,-5.99231 -0.0858,-0.668201 -0.86801,-6.76655 -1.29435,-10.091227 l 4.70966,-0.534287 c 0.40613,-0.04607 0.71547,-0.193994 0.63322,-0.815827 l -1.1918,-9.010058 c -0.10824,-0.818315 -0.71593,-0.697978 -1.84122,-0.592754 -0.91748,0.08579 -2.18847,0.219786 -3.66537,0.382277 -0.55661,-4.340866 -0.87842,-6.851628 -1.31773,-10.277418 -0.0668,-0.521067 -0.30355,-0.762831 -0.84732,-0.709687 z m 107.34262,5.154001 c -3.67042,0.0407 -7.91213,0.875473 -11.07165,3.664467 -1.95468,1.725441 -3.40181,4.358899 -3.40181,7.904598 0,3.976375 0.84921,6.658967 2.68582,8.717726 2.65331,2.974222 6.38469,4.220923 10.76764,5.744956 3.41303,1.186776 5.63434,1.643597 7.10406,2.817161 0.60505,0.483129 1.11535,1.221427 1.11535,2.07959 0,0.710851 -0.39895,1.326841 -0.841,1.674822 -0.65414,0.51492 -1.61015,0.777151 -2.57612,0.777151 -3.64443,0 -4.80221,-2.001952 -4.975,-3.800289 -0.0244,-0.254249 -0.31825,-0.536498 -0.71866,-0.543284 l -11.59066,-0.196087 c -0.79151,-0.0134 -0.80577,0.453779 -0.68182,1.224187 0.48832,3.035152 1.92831,5.986223 3.88125,8.167245 3.64597,4.071863 8.86613,5.343794 15.28659,5.343794 8.92699,0 15.39097,-3.669783 15.39097,-11.891078 0,-3.843367 -0.77109,-6.853654 -3.38024,-9.610008 -2.4737,-2.613249 -5.92072,-4.362475 -14.06243,-6.747873 -1.19795,-0.350979 -2.82862,-0.711476 -3.58891,-1.353711 -0.40291,-0.340353 -0.88781,-0.934821 -0.90577,-1.618158 -0.0139,-0.557655 0.26757,-1.074698 0.73938,-1.445461 0.44824,-0.352251 1.12838,-0.593654 1.86912,-0.593654 1.18117,0 2.10367,0.313095 2.61477,0.658417 0.75176,0.507922 1.14947,1.211395 1.41847,2.079589 0.21378,0.689987 0.3218,0.851574 1.46255,0.890482 l 10.71637,0.365187 c 0.30055,0.01025 0.699,-0.116394 0.59815,-0.675507 -0.59858,-3.318226 -1.97641,-6.643967 -4.6629,-9.075717 -2.85083,-2.580513 -7.66147,-4.619911 -13.19352,-4.558545 z m -35.61205,0.298626 c -9.48157,-2e-6 -17.57309,6.254783 -17.57309,19.580702 0,12.740953 6.81558,22.954638 20.40913,22.954638 7.00636,0 11.01397,-2.163911 13.70172,-5.114423 2.35064,-2.580441 3.36944,-6.547485 3.36944,-8.100684 0,-0.375182 0.1114,-0.842122 -0.96965,-0.840112 l -11.1598,0.0207 c -0.5229,9.74e-4 -0.77688,0.259431 -0.89497,0.569368 -0.66015,1.732614 -2.52111,2.486145 -4.38765,2.486145 -1.86885,0 -3.25858,-0.73242 -4.32647,-1.905981 -0.97151,-1.067607 -1.60039,-2.715438 -1.8943,-4.58823 l 22.82509,-0.211377 c 0.42376,-0.004 0.7682,1.9e-5 0.76277,-0.820323 -0.0355,-5.38759 -1.34368,-10.221626 -3.62579,-14.29178 -3.60805,-6.434985 -9.09458,-9.738631 -16.23643,-9.738632 z M 100.76805,51.02404 89.15401,53.29162 c -0.465933,0.09096 -0.63832,0.438115 -0.589156,0.817624 l 6.604855,50.985916 c 0.04917,0.37953 0.390078,0.62295 0.766355,0.55318 l 11.624836,-2.15515 c 0.37624,-0.0699 0.63829,-0.4381 0.58916,-0.81762 L 106.3538,88.802053 c 0,0 0.94132,-0.290469 2.29007,-0.81133 0,0 5.29433,8.705136 7.94147,13.057697 0.22286,0.36643 0.32398,0.76298 1.01821,0.66471 0.40134,-0.0568 8.69674,-1.2311 13.04512,-1.846622 0.67221,-0.0951 0.6935,-0.761948 0.25004,-1.458948 -3.77879,-5.939434 -7.67876,-11.717847 -11.52678,-17.564978 3.62165,-4.102053 6.67284,-10.860076 6.49781,-19.229906 -0.0132,-0.633421 -0.0289,-1.052775 -0.81313,-1.030801 -0.11202,0.0031 -0.24001,0.01533 -0.38677,0.03688 -3.97785,0.58264 -7.95549,1.268399 -11.93335,1.95636 -1.11999,0.193692 -1.15763,0.581447 -1.15763,1.152228 0,3.31275 -0.97389,5.756949 -2.0724,7.54301 -2.37614,3.863398 -4.86615,4.294999 -4.86615,4.294999 L 101.5353,51.576319 c -0.0491,-0.379516 -0.39166,-0.625611 -0.76725,-0.552279 z m -29.527113,2.978164 c -5.41953,0 -15.335456,1.924237 -20.532348,8.443386 -2.746915,3.445821 -4.035052,7.309068 -4.035052,11.955841 0,3.912549 0.95778,7.847829 3.647379,10.897161 2.902633,3.290852 8.035059,3.918912 12.768065,4.221242 8.543773,0.545751 9.571933,0.497871 11.099541,1.284452 0.546964,0.281639 1.103618,0.75295 1.498528,1.41937 0.245154,0.4137 0.553177,1.267951 0.553177,2.114672 0,1.772691 -1.028776,3.022901 -2.741603,4.036853 -1.923685,1.138759 -4.5123,1.699109 -6.606654,1.699109 -2.509459,0 -3.975006,-0.62811 -4.945322,-1.62985 -1.006711,-1.039321 -1.51823,-2.653872 -1.713502,-4.042252 -0.116064,-0.825271 -0.577677,-0.950171 -1.091965,-0.825721 l -12.16452,2.943992 c -0.656606,0.15886 -0.700806,0.41419 -0.660215,0.74296 0.476619,3.860701 1.425053,6.662691 3.669862,9.607321 3.235545,4.24418 8.01388,6.18838 14.48697,6.18838 5.879566,0 11.829332,-1.65847 15.772318,-3.5835 8.931067,-4.36032 10.678585,-11.66573 10.678585,-16.984814 0,-6.278893 -2.066775,-10.194787 -5.284423,-12.527913 -5.853567,-4.244433 -13.529254,-4.057766 -18.603872,-4.368755 -2.080045,-0.127464 -3.885449,-0.378827 -5.010084,-1.176516 -0.50288,-0.356684 -1.22149,-1.349405 -1.22149,-2.544618 0,-3.253564 4.549961,-5.064053 7.658142,-5.064053 4.163758,0 5.607326,2.598445 5.941941,4.126798 0.09678,0.442117 0.541148,0.69596 1.018209,0.591854 L 88.214957,68.73653 c 0.366577,-0.07998 0.269212,-0.509467 0.220372,-0.772651 C 86.864674,59.499597 81.143206,54.002204 71.240937,54.002204 Z m 69.033923,4.377753 c -0.0538,7.4e-4 -0.10773,0.0057 -0.1619,0.01358 l -11.43416,1.628051 c -0.4008,0.05707 -0.73598,0.270134 -0.65932,0.970537 1.44677,13.218593 3.2874,25.219958 4.75284,37.849966 0.0445,0.383411 0.40078,0.644081 0.77624,0.594551 l 11.8515,-1.563291 c 0.37547,-0.04949 0.626,-0.40246 0.57657,-0.785241 l -4.90934,-38.01645 c -0.067,-0.519219 -0.41594,-0.696876 -0.79243,-0.691699 z m 90.68701,3.14457 c 1.66556,0 2.69686,0.539393 3.66266,1.609164 1.60069,1.773015 1.85382,4.151083 1.85382,4.151083 l -10.31519,0.221271 c 0.1584,-3.072367 1.12934,-5.981518 4.79871,-5.981518 z"
         id="path54"
         sodipodi:nodetypes="cscccccccccccccccccssscccsscccccccscssscsscsccssssssssscsscscssssssssssscccssssssscssssccssssssssccsssccssssccccccsccscsscsscsssccscssssssssssssccssssssssssscscssccssccscsssccs" /><path
         id="path56"
         style="fill:#c9e8fa;fill-opacity:1;stroke:none;stroke-width:2.87197;stroke-linecap:square;stroke-dasharray:none;stroke-opacity:1;paint-order:normal"
         d="m 196.31513,40.994251 -1.49433,0.08957 6.5852,50.420365 10.8546,-0.465885 -0.21573,-1.652715 -5.5e-4,-0.005 -9.33298,0.61335 z m -21.90694,3.825931 -1.32118,0.109234 1.23925,9.814702 1.43043,-0.193346 z m -25.11406,2.595407 c -0.47873,0.05608 -0.95272,0.106229 -1.43205,0.161667 l 1.25401,9.656858 1.51016,-0.204268 z m -57.700828,6.862098 -1.521087,0.296571 6.411507,49.511532 10.157698,-1.8832 -0.20318,-1.57352 -8.683578,1.62541 z m 164.608438,0.492101 c -1.67369,1.478382 -2.91109,3.674163 -2.91109,6.827689 0,3.771893 0.74749,6.001215 2.31794,7.761643 2.3408,2.623884 5.77635,3.816473 10.16862,5.343742 3.33843,1.160838 5.65104,1.552139 7.53007,3.052551 0.85482,0.682562 1.65544,1.772047 1.65544,3.199474 0,0.989119 -0.40246,1.786402 -0.94487,2.376391 l 0.003,0.01202 c 0,0 2.05087,-1.268325 2.05087,-3.606916 0,-3.919508 -4.34387,-4.74151 -9.8988,-6.543134 -6.04162,-1.959464 -9.0907,-4.144487 -10.35541,-6.335043 -0.80394,-1.392433 -1.24582,-3.247472 -1.24582,-4.633719 0,-5.610925 1.62488,-7.449169 1.62977,-7.454694 z m -36.8125,1.361605 c -2.90946,2.928811 -4.81068,7.402185 -4.81068,13.774445 0,6.114378 1.64016,11.52037 4.78009,15.34578 3.13996,3.825428 7.75677,6.174467 14.1939,6.174467 6.71068,0 10.19493,-1.960546 12.6395,-4.644096 0.5854,-0.642608 1.06733,-1.42473 1.48995,-2.235479 -0.15857,0.17238 -5.02815,5.404367 -12.78478,5.404367 -8.31267,0 -12.52251,-2.458871 -15.86683,-7.939149 -2.13674,-3.501426 -3.22295,-9.247606 -3.22295,-13.008166 0,-8.328519 3.5818,-12.872169 3.5818,-12.872169 z m -47.93038,0.12835 -1.51999,0.146921 1.03335,7.682448 4.54852,-0.424922 2.11478,17.205494 c 0.0479,0.389859 0.16957,1.56725 0.54071,3.07713 0.37112,1.50989 0.99963,3.264315 1.89685,4.497175 1.86843,2.56744 3.87796,3.950994 8.5028,4.089733 2.57568,0.0773 4.76286,-0.208124 7.24059,-0.628644 l -0.18788,-1.476848 v -0.0011 c 0,0 -5.47078,1.302853 -9.82944,0.134903 -3.88252,-1.04031 -6.00212,-4.290618 -6.70808,-9.843648 l -2.34799,-18.73532 -4.46496,0.516678 z m 96.41729,1.319551 c -3.59625,0 -4.24156,3.44798 -4.24156,3.44798 l 0.012,-0.005 c 0.23103,-0.477288 0.56688,-0.895826 0.97055,-1.213047 0.75251,-0.591339 1.70164,-0.901183 2.75434,-0.901183 1.43494,0 2.57796,0.335804 3.41958,0.90446 1.03076,0.696414 1.58733,1.741843 1.91706,2.749973 l 9.72677,0.299302 c -0.12219,-0.512208 -0.28084,-1.013296 -0.44076,-1.513441 l -8.18329,-0.241953 c 0,0 -1.40682,-3.527176 -5.93469,-3.527176 z m -36.95014,1.028441 c -1.73323,0 -3.19729,0.927198 -3.81118,1.641245 -1.19167,1.386121 -1.51016,3.119731 -1.51016,3.119731 l 0.0469,-0.03714 c 0.12203,-0.253853 0.23473,-0.51117 0.39105,-0.752077 0.94826,-1.461196 2.70518,-2.491635 4.91937,-2.491635 1.97558,0 3.58258,0.815222 4.72821,2.084191 1.97823,2.191156 2.21745,4.959783 2.21745,4.959783 l 0.0186,0.179144 1.82149,0.03223 c 0,0 -0.0199,-3.235179 -3.27758,-6.625606 -1.07705,-1.120922 -3.03136,-2.10986 -5.54419,-2.10986 z m -84.50857,0.417275 c -0.53817,0.06346 -1.08433,0.127909 -1.60464,0.189521 l 1.09125,7.655686 4.39558,-0.500294 2.22347,17.101175 c 0.0539,0.41464 0.17052,1.569288 0.54071,3.066207 0.37018,1.496921 1.00079,3.227491 1.88975,4.422351 1.85538,2.493807 3.81392,3.750013 8.45145,3.750013 2.58257,0 4.74404,-0.334609 7.21384,-0.826358 l -0.18187,-1.464285 c 0,0 -6.70499,1.266709 -9.76719,0.622089 -3.93327,-0.827991 -6.00267,-4.289518 -6.70862,-9.842556 l -2.36001,-18.565461 -4.45239,0.583858 z m 45.31865,1.777902 -4.64792,0.358836 0.21076,1.534897 4.65448,-0.368666 z m -60.77803,0.347251 -1.44735,0.205907 c 1.3985,12.652015 3.1438,24.25755 4.57419,36.412706 l 10.37452,-1.220694 -0.20099,-1.54785 -8.85071,1.144229 z m -78.494666,1.474662 c -0.215243,0.235436 -0.434301,0.467307 -0.633013,0.716577 -2.557185,3.207823 -3.719428,6.67752 -3.719428,11.05888 0,3.678172 0.891388,7.230942 3.287407,9.947422 2.407092,2.729048 7.110489,3.44061 11.783103,3.739089 4.265533,0.27246 6.643813,0.395501 8.234081,0.557642 1.590265,0.16215 2.538489,0.425502 3.42941,0.884251 0.774129,0.3986 1.532944,1.040666 2.078182,1.960756 0.418195,0.705719 0.754264,1.654964 0.754264,2.849922 0,1.07244 -0.346043,2.016888 -0.880429,2.852108 l 0.02076,0.0038 c 0,0 1.883199,-2.554625 1.883199,-4.053685 0,-2.687049 -1.784088,-4.615265 -4.227913,-5.464445 C 72.527431,87.001093 67.549492,86.845162 64.371576,86.6345 56.120419,86.6123 50.173408,84.521269 49.525543,74.913661 c -0.200337,-2.97091 0.475473,-6.172759 0.85585,-7.59233 0.785161,-2.930283 2.015106,-4.60612 2.082006,-4.696529 z m 113.845736,0.419632 -4.1427,0.462062 0.16355,1.500787 4.14872,-0.472985 z m -51.72037,0.683089 c -0.53659,0.09223 -1.06969,0.170356 -1.60683,0.263255 -0.0562,3.451535 -1.08047,6.124917 -2.25406,8.03309 -0.9016,1.465924 -1.83918,2.493875 -2.70026,3.233881 l -0.0106,0.02622 c 3.95814,-1.07781 6.41663,-5.980207 6.57153,-11.556441 z m -46.404367,0.126712 c -6.821586,0 -8.03582,5.392351 -8.03582,5.392351 l 0.06936,-0.0295 c 0.63803,-0.981017 1.546556,-1.784272 2.545705,-2.346898 1.78559,-1.005493 3.864222,-1.495964 5.697115,-1.495964 2.380568,0 4.189473,0.78306 5.375419,1.86299 0.981543,0.893783 1.34305,1.898314 1.631415,2.807869 l 11.33415,-2.471427 c -0.105267,-0.478645 -0.258527,-0.91313 -0.389966,-1.36816 l -9.885704,2.101123 c 0,0 -0.436406,-1.436886 -2.094567,-2.67788 -1.469854,-1.100061 -3.229065,-1.77451 -6.24711,-1.77451 z m 180.824257,8.344407 -22.27887,0.304218 c -0.6378,0.0038 -0.30938,1.455392 0.0862,1.451724 l 22.31984,-0.206999 c -0.0123,-0.47114 -0.0581,-0.989761 -0.12726,-1.548943 z m 4.69654,8.120478 c 0.51044,2.582943 1.73135,5.131563 3.38899,6.982802 3.29073,3.675079 7.98657,4.865296 14.2174,4.865296 4.26668,0 7.82244,-0.894985 10.20902,-2.594315 1.10851,-0.789249 1.98464,-1.745089 2.61671,-2.906179 l 0.27582,-0.558733 c 0.0123,-0.02611 0.0218,-0.05344 0.0333,-0.07974 -0.23477,0.43952 -1.13991,1.824121 -3.80572,2.98155 -3.25491,1.41316 -5.29548,1.671285 -10.08943,1.671285 -5.77085,0 -9.25544,-1.673469 -11.7192,-3.947728 -2.89638,-2.673608 -3.75002,-6.390752 -3.75002,-6.390752 z m -143.82825,3.965751 c -1.01062,0.490561 -2.33273,0.980836 -3.96302,1.471386 l 0.23103,1.59919 c 0.15192,-0.04759 0.80279,-0.247301 1.9826,-0.702923 l 1.1191,-0.435845 0.62482,1.027349 c 0,0 5.24391,8.619617 7.90365,12.992869 0.74477,-0.10538 7.16144,-1.012291 11.53514,-1.63141 -0.30248,-0.47363 -0.61911,-0.934849 -0.92302,-1.406938 l -9.79613,1.441892 z M 49.223505,97.45418 47.893031,97.775876 c 0.479537,3.288004 1.289867,5.669544 3.236613,8.223154 2.950443,3.87024 7.158003,5.62339 13.343514,5.62339 5.609477,0 11.418679,-1.61871 15.142058,-3.43652 3.757647,-1.83454 6.074399,-4.16694 7.546451,-6.62233 -0.334956,0.37402 -7.781633,8.51481 -23.332445,8.51481 -13.606036,0 -14.605717,-12.6242 -14.605717,-12.6242 z"
         sodipodi:nodetypes="ccccccccccccccccccccccccccscsssccsssscccssscsssccscccsssccccccccsscsssccccssscccsscccsscccccsssccsccccccccccccscccccsccssssccsscscccccccccccscscccscccccsscccccccssccccsscccccccccsccccccsscscccsscsc" /><path
         id="ellipse74"
         style="fill:#c70925;stroke-width:7.15761;stroke-linecap:square;paint-order:stroke fill markers"
         d="m 141.10121,46.734636 a 8.2074531,8.2666282 82.560893 0 1 -7.13443,9.208674 8.2074531,8.2666282 82.560893 0 1 -9.25968,-7.068073 8.2074531,8.2666282 82.560893 0 1 7.13442,-9.208672 8.2074531,8.2666282 82.560893 0 1 9.25969,7.068071 z" /><g
         id="g490"
         transform="translate(22.585661,-19.138718)"><path
           id="circle74"
           style="fill:url(#radialGradient77);stroke-width:6.70633;stroke-linecap:square;paint-order:stroke fill markers"
           d="m 118.02868,66.820598 a 7.745414,7.6899699 5.1684201e-5 0 1 -7.74543,7.689963 7.745414,7.6899699 5.1684201e-5 0 1 -7.74541,-7.689977 7.745414,7.6899699 5.1684201e-5 0 1 7.74542,-7.689963 7.745414,7.6899699 5.1684201e-5 0 1 7.74542,7.689977 z" /><path
           id="path76"
           style="fill:url(#radialGradient480);fill-opacity:1;stroke:none;stroke-width:2.87198;stroke-linecap:square;stroke-dasharray:none;stroke-opacity:1;paint-order:normal"
           d="m 109.1811,59.209076 a 7.7454141,7.68997 5.16842e-5 0 0 -5.33157,3.344929 c 2.12818,0.689732 4.93123,1.818551 7.01186,3.465795 3.1934,2.52824 4.43689,4.747084 4.91849,6.191043 a 7.7454141,7.68997 5.16842e-5 0 0 2.24878,-5.390685 7.7454141,7.68997 5.16842e-5 0 0 -7.7457,-7.689636 7.7454141,7.68997 5.16842e-5 0 0 -1.10186,0.07857 z" /><path
           style="fill:#ffffff;fill-opacity:0.994302;stroke:none;stroke-width:2.87198;stroke-linecap:square;stroke-dasharray:none;stroke-opacity:1;paint-order:normal"
           d="m 113.42791,64.810548 -1.96453,0.256512 c 0,0 -0.0536,-0.907852 -1.38691,-0.79356 -0.49276,0.04222 -1.21418,0.404868 -1.14361,0.945278 0.086,0.658826 1.02906,0.690462 2.07646,0.818534 1.20268,0.147047 2.74559,0.461875 2.97337,2.206336 0.1741,1.333428 -0.94682,2.461003 -3.04693,2.735218 -3.32171,0.43372 -3.87813,-2.245182 -3.87813,-2.245182 l 1.9228,-0.251063 c 0,0 0.15261,1.168773 1.64697,0.973653 0.69204,-0.09036 1.41157,-0.478547 1.33781,-1.043482 -0.0884,-0.677156 -1.01735,-0.733139 -2.04686,-0.853857 -1.49202,-0.174935 -2.66663,-0.391736 -2.87463,-1.984745 -0.17944,-1.374281 0.87165,-2.46625 2.89923,-2.696501 3.03577,-0.344777 3.48496,1.932859 3.48496,1.932859 z"
           id="path75"
           sodipodi:nodetypes="ccsssssccsssssc" /><path
           id="ellipse483"
           style="fill:url(#radialGradient486);fill-opacity:0.180392;stroke-width:6.70633;stroke-linecap:square;paint-order:stroke fill markers"
           d="m 118.02868,66.820598 a 7.745414,7.6899699 5.1684201e-5 0 1 -7.74543,7.689963 7.745414,7.6899699 5.1684201e-5 0 1 -7.74541,-7.689977 7.745414,7.6899699 5.1684201e-5 0 1 7.74542,-7.689963 7.745414,7.6899699 5.1684201e-5 0 1 7.74542,7.689977 z" /></g></g></g></svg>
